
    <svg xmlns="http://www.w3.org/2000/svg" width="920" height="560" viewBox="0 0 920 560">
      <rect width="100%" height="100%" fill="#0f172a" />
      <text x="70" y="36" font-family="Arial" font-size="24" font-weight="700" fill="#ffffff">Mother vs Father Factor Comparison</text>
      <line x1="70" y1="430" x2="850" y2="430" stroke="#334155" />
      <line x1="70" y1="70" x2="70" y2="430" stroke="#334155" />
      
        <rect x="96.71428571428572" y="327.14285714285717" width="26" height="102.85714285714285" rx="5" fill="#fb7185" />
        <rect x="128.71428571428572" y="224.2857142857143" width="26" height="205.7142857142857" rx="5" fill="#38bdf8" />
        <text x="125.71428571428572" y="456" text-anchor="middle" font-size="11" fill="#cbd5e1">Factor 1</text>
      
        <rect x="208.14285714285717" y="301.42857142857144" width="26" height="128.57142857142858" rx="5" fill="#fb7185" />
        <rect x="240.14285714285717" y="198.57142857142856" width="26" height="231.42857142857144" rx="5" fill="#38bdf8" />
        <text x="237.14285714285717" y="456" text-anchor="middle" font-size="11" fill="#cbd5e1">Factor 2</text>
      
        <rect x="319.5714285714286" y="275.7142857142857" width="26" height="154.28571428571428" rx="5" fill="#fb7185" />
        <rect x="351.5714285714286" y="172.85714285714283" width="26" height="257.14285714285717" rx="5" fill="#38bdf8" />
        <text x="348.5714285714286" y="456" text-anchor="middle" font-size="11" fill="#cbd5e1">Factor 3</text>
      
        <rect x="431" y="250" width="26" height="180" rx="5" fill="#fb7185" />
        <rect x="463" y="147.14285714285717" width="26" height="282.85714285714283" rx="5" fill="#38bdf8" />
        <text x="460" y="456" text-anchor="middle" font-size="11" fill="#cbd5e1">Factor 4</text>
      
        <rect x="542.4285714285714" y="224.2857142857143" width="26" height="205.7142857142857" rx="5" fill="#fb7185" />
        <rect x="574.4285714285714" y="121.42857142857144" width="26" height="308.57142857142856" rx="5" fill="#38bdf8" />
        <text x="571.4285714285714" y="456" text-anchor="middle" font-size="11" fill="#cbd5e1">Factor 5</text>
      
        <rect x="653.8571428571428" y="198.57142857142856" width="26" height="231.42857142857144" rx="5" fill="#fb7185" />
        <rect x="685.8571428571428" y="95.71428571428572" width="26" height="334.2857142857143" rx="5" fill="#38bdf8" />
        <text x="682.8571428571428" y="456" text-anchor="middle" font-size="11" fill="#cbd5e1">Factor 6</text>
      
        <rect x="765.2857142857142" y="172.85714285714283" width="26" height="257.14285714285717" rx="5" fill="#fb7185" />
        <rect x="797.2857142857142" y="70" width="26" height="360" rx="5" fill="#38bdf8" />
        <text x="794.2857142857142" y="456" text-anchor="middle" font-size="11" fill="#cbd5e1">Factor 7</text>
      
      <rect x="70" y="512" width="14" height="14" rx="3" fill="#fb7185" />
      <text x="92" y="524" font-family="Arial" font-size="14" fill="#cbd5e1">Mother</text>
      <rect x="170" y="512" width="14" height="14" rx="3" fill="#38bdf8" />
      <text x="192" y="524" font-family="Arial" font-size="14" fill="#cbd5e1">Father</text>
    </svg>
  